<?xml version="1.0" encoding="utf-8"?>
<!-- Generator: Adobe Illustrator 24.3.0, SVG Export Plug-In . SVG Version: 6.00 Build 0)  -->
<svg version="1.1" id="Layer_1" xmlns="http://www.w3.org/2000/svg" xmlns:xlink="http://www.w3.org/1999/xlink" x="0px" y="0px"
	 viewBox="0 0 1920 833" style="enable-background:new 0 0 1920 833;" xml:space="preserve">
<style type="text/css">
	.st0{fill:#2D64BC;}
	.st1{fill:url(#SVGID_1_);}
	.st2{fill:url(#SVGID_2_);}
	.st3{fill:url(#SVGID_3_);}
	.st4{fill:url(#SVGID_4_);}
	.st5{fill:url(#SVGID_5_);}
	.st6{fill:url(#SVGID_6_);}
</style>
<g>
	<path class="st0" d="M672.6,569.8c-8-8.4-17.6-12.6-28.9-12.6c-19.9,0-35.5-6.4-46.7-19.2c-11.3-12.8-16.9-31.4-17-55.8l-0.3-212.4
		l-94.9,0c-25.1,0-47.5,3.5-67.1,10.5c-19.6,7-36.2,17.3-49.9,31c-13.9,13.9-24.4,31.2-31.7,51.8c-7.2,20.6-10.9,44.6-10.8,72
		l0.1,121.8l-65.7-0.1c-19.8,0-35.6-6.3-47.5-18.8c-11.7-12.5-17.5-32.8-17.5-60.9l0-94.1v-26.8l-22.2,0l10,0h12.6
		c2.1-16.8,5.7-32.4,10.7-46.8c4.9-14,11.2-27,18.7-38.7h-42.1l-81.7,0v17.3H184c0,3.1-0.9,6.1-2.3,8.6c-0.7,1.3-1.6,2.4-2.7,3.4
		c-3.1,3.1-7.3,5-12.1,5h-66.2V322h53c0,4.7-1.9,9-5,12.1c-3.1,3.1-10,5-14.7,5h-33.4v16.9l0,121.1c0,6,0.2,11.9,0.6,17.6
		c1.2,20.2,4.7,38.3,10.3,54.4c7,20.4,17.5,37.6,31.3,51.5c13.2,13.3,28.9,23.4,47.1,30.3c0.9,0.4,1.8,0.7,2.7,1
		c19.6,7,41.9,10.5,67,10.5l160.2,0.3l-0.2-207.6c0-28.1,5.8-48.4,17.5-60.9c12.1-12.5,28.1-18.8,47.9-18.8l0.2,125.4
		c0,23.4,3.4,45,10,64.8c6.9,19.7,17.1,36.8,30.8,51.3c13.5,14.4,30.2,25.7,50,33.9c19.2,7.9,41.4,12,66.6,12.3h1
		c11.3,0,20.9-4.1,28.8-12.5c7.9-8.4,11.9-18.5,11.9-30.3C684.6,588.3,680.6,578.2,672.6,569.8z"/>
	<path class="st0" d="M893,570.1c-8-8.4-17.6-12.6-28.9-12.6c-19.9,0-35.5-6.4-46.8-19.2c-7-7.7-11.8-17.7-14.5-29.9
		c-1.7-7.6-2.5-16.2-2.6-25.6l-0.9-298.5l-95.1,0.1l0.8,298c0,24.4-5.6,43-16.8,55.8c-11.2,12.8-26.9,19.1-47,19.1l0.1,85.8
		c25.6-0.2,48.2-4.2,67.6-12.1c17-6.9,31.6-16,43.8-27.1c0,0,0.1,0.1,0.1,0.1c12.4,11.1,26.9,20.2,43.7,27.2
		c19.3,7.9,41.5,12,66.8,12.3l1,0c11.3,0,20.9-4.2,28.9-12.5c8-8.4,11.9-18.5,11.9-30.4C905,588.6,901,578.4,893,570.1z"/>
	<path class="st0" d="M1628.9,457.8c0.1,29.4-4.5,55.7-13.8,78.9c-2.8,6.9-5.9,13.5-9.3,19.8c-7.2-1.2-14.1-3.2-20.6-6
		c-11.4-4.9-21.2-11.8-29.5-20.7c-8.3-8.9-14.7-19.5-19.3-31.8c-2.5-6.6-4.3-13.5-5.4-20.8c0.9-6.2,1.3-12.7,1.2-19.4
		c0-6.9-0.5-13.5-1.5-19.9c-1.1-7.4-2.8-14.5-5.2-21.2c-0.5-1.5-1.1-3-1.7-4.4c-4.2-10.6-9.9-19.8-17-27.6
		c-8-8.9-17.8-15.7-29.3-20.6c-6.6-2.8-13.7-4.8-21.2-6.1c-5.5-0.9-11.2-1.3-17.1-1.3l-350.9-0.1c-20.2,0-35.9,6.3-47.2,19
		c-11.3,12.7-16.9,31.2-16.8,55.6l0.3,126.3l415.2,0.5c5.8,0,11.4-0.4,16.8-1.2c8,14.7,17.9,27.5,29.6,38.5
		c13.2,12.4,28.3,22.5,45.4,30.4c-4.8,2.2-9.8,4.2-15,6.1c-23.3,8.2-48.8,12.4-76.6,12.3l-584.1-0.8l-0.2-85.9l73.4,0L929,270.8
		l89.7,0l0,12.9c17.7-7.4,38.1-11.8,61.1-12.9l359.5-0.1c27.8,0,53.3,4.1,76.6,12.4c5.2,1.9,10.2,3.9,15,6.1
		c16.9,7.7,31.8,17.8,44.7,30.1c11.6,11.1,21.5,24.1,29.5,38.8c3.5,6.2,6.6,12.8,9.4,19.8c2.7,6.6,5,13.4,6.9,20.5
		C1626.3,416.4,1628.8,436.2,1628.9,457.8z"/>
	<path class="st0" d="M1812.4,617.3c0.1,23.4-3.3,45-10.3,65c-1.7,4.7-3.5,9.3-5.5,13.7c-6.5,14.3-14.9,26.9-25.3,38
		c-13.6,14.5-30.3,25.7-50.3,33.7c-19.9,8-42.9,12.1-68.7,12.3v-0.2l-0.3-87.8c20.3,0,36.1-6.4,47.4-19.2
		c10-11.2,15.5-27.1,16.6-47.6c-27.2,12.8-58,19.2-92.6,19.1c-28.1-0.1-53.7-4.3-76.9-12.7c-5-1.8-9.8-3.8-14.5-6
		c-17.1-7.9-32.3-18-45.4-30.4c-11.7-11-21.6-23.8-29.6-38.5c-3.5-6.4-6.7-13.1-9.5-20.1c-2.4-6-4.5-12.1-6.2-18.6
		c-5.2-18.6-7.8-39-7.9-61.2c-0.1-29.1,4.4-55.3,13.6-78.5c2.9-7.2,6.1-14,9.6-20.5c7.5,1.2,14.5,3.2,21.2,6
		c11.5,4.9,21.2,11.8,29.3,20.6c8,8.9,14.2,19.5,18.6,32c2.4,6.7,4.1,13.8,5.2,21.2c-0.9,6.1-1.4,12.5-1.3,19.2c0,1.7,0,3.3,0.1,4.9
		c0.2,5.2,0.7,10.3,1.4,15.2c1.2,7.3,3,14.3,5.4,20.8c4.6,12.4,11,23,19.3,31.8c8.3,8.9,18.1,15.8,29.5,20.7
		c6.5,2.8,13.3,4.8,20.6,6c5.4,0.9,11,1.4,16.9,1.4c14.1,0,26.9-2.4,38.4-7.3c11.5-4.9,21.3-11.8,29.2-20.7
		c7.9-8.8,14-19.5,18.3-31.8c4.3-12.4,6.4-26,6.4-41c-0.1-15.4-2.3-29.3-6.7-41.6c-4.4-12.4-10.5-22.9-18.5-31.5
		c-8-8.6-17.7-15.3-29.3-20.1c-4-1.7-8.2-3-12.5-4.1c-8.1-2-16.7-3.1-25.7-3.1c-5.9,0-11.7,0.5-17.2,1.4
		c-8.1-14.7-17.9-27.7-29.5-38.8c-12.8-12.3-27.8-22.3-44.7-30.1c4.6-2.1,9.4-4.1,14.4-5.9c23.1-8.4,48.7-12.6,76.8-12.6
		c0.2,0,1.1,0,2.7,0c10.1,0.1,19.8,0.7,29.3,1.9c15.7,2,30.6,5.5,44.7,10.4c10.4,3.7,25.9,8.2,41.3,13.4c0.7,1.3,1.6,2.4,2.7,3.4
		c3.1,3.1,7.3,5,12.1,5h7.8c10.4,4.4,19.4,9.3,24.9,14.5c0.9,0.8,1.7,1.7,2.5,2.5h-22.1c0,4.7,1.9,9,5,12.1c3.1,3.1,7.3,5,12.1,5
		h19.8c8.7,11.6-12.9,24.7-7.1,39.1c9.4,23.1,14.1,49.5,14.2,79.1L1812.4,617.3z"/>
	<path class="st0" d="M1431.2,692.8l72.2,86.3l-1207-2.1c-29.1-0.1-52.7-25-52.7-55.6l0-30.6L1431.2,692.8z"/>
	<linearGradient id="SVGID_1_" gradientUnits="userSpaceOnUse" x1="1525.2129" y1="372.7739" x2="1636.3528" y2="289.251">
		<stop  offset="0" style="stop-color:#000000"/>
		<stop  offset="0.1355" style="stop-color:#1C1C1C;stop-opacity:0.8645"/>
		<stop  offset="0.4291" style="stop-color:#646464;stop-opacity:0.5709"/>
		<stop  offset="0.8551" style="stop-color:#D7D7D7;stop-opacity:0.1449"/>
		<stop  offset="1" style="stop-color:#FFFFFF;stop-opacity:0"/>
	</linearGradient>
	<path class="st1" d="M1654,272.6l-6,87.1c-8.1-2.1-16.6-3.1-25.7-3.1c-5.9,0-11.7,0.5-17.2,1.4c-8.1-14.7-17.9-27.7-29.5-38.8
		c-12.8-12.3-27.8-22.3-44.7-30.1c4.6-2.1,9.4-4.1,14.4-5.9c23.1-8.4,48.7-12.6,76.8-12.6C1633,270.7,1643.7,271.3,1654,272.6z"/>
	<linearGradient id="SVGID_2_" gradientUnits="userSpaceOnUse" x1="1541.0626" y1="345.9626" x2="1463.752" y2="450.2589">
		<stop  offset="0" style="stop-color:#000000"/>
		<stop  offset="0.1242" style="stop-color:#1C1C1C;stop-opacity:0.8645"/>
		<stop  offset="0.3933" style="stop-color:#646464;stop-opacity:0.5709"/>
		<stop  offset="0.7838" style="stop-color:#D7D7D7;stop-opacity:0.1449"/>
		<stop  offset="0.9166" style="stop-color:#FFFFFF;stop-opacity:0"/>
	</linearGradient>
	<path class="st2" d="M1531.5,460.8l-1.8,1.2l-88.4,56.2c-5.2-18.6-7.8-39-7.9-61.2c-0.1-29.1,4.4-55.3,13.6-78.5
		c2.9-7.2,6.1-14,9.6-20.5c7.5,1.2,14.5,3.2,21.2,6.1c11.5,4.9,21.2,11.8,29.3,20.6c8,8.9,14.2,19.5,18.6,32
		c2.4,6.7,4.1,13.8,5.2,21.2L1531.5,460.8z"/>
	<linearGradient id="SVGID_3_" gradientUnits="userSpaceOnUse" x1="1530.8728" y1="520.9858" x2="1390.4879" y2="625.327">
		<stop  offset="0" style="stop-color:#000000"/>
		<stop  offset="0.1355" style="stop-color:#1C1C1C;stop-opacity:0.8645"/>
		<stop  offset="0.4291" style="stop-color:#646464;stop-opacity:0.5709"/>
		<stop  offset="0.8551" style="stop-color:#D7D7D7;stop-opacity:0.1449"/>
		<stop  offset="1" style="stop-color:#FFFFFF;stop-opacity:0"/>
	</linearGradient>
	<path class="st3" d="M1532,625.7c-4.8,2.2-9.8,4.2-15,6.1c-23.3,8.2-48.8,12.4-76.6,12.3l-108.8-0.2l7.5-86l101.1,0.1
		c5.8,0,11.4-0.4,16.8-1.2c8,14.7,17.9,27.5,29.6,38.5C1499.8,607.8,1514.9,617.9,1532,625.7z"/>
	<linearGradient id="SVGID_4_" gradientUnits="userSpaceOnUse" x1="1490.2565" y1="574.3668" x2="1589.7805" y2="454.4434">
		<stop  offset="0" style="stop-color:#000000"/>
		<stop  offset="0.1355" style="stop-color:#1C1C1C;stop-opacity:0.8645"/>
		<stop  offset="0.4291" style="stop-color:#646464;stop-opacity:0.5709"/>
		<stop  offset="0.8551" style="stop-color:#D7D7D7;stop-opacity:0.1449"/>
		<stop  offset="1" style="stop-color:#FFFFFF;stop-opacity:0"/>
	</linearGradient>
	<path class="st4" d="M1628.9,457.8c0.1,29.4-4.5,55.7-13.8,78.9c-2.8,6.9-5.9,13.5-9.3,19.8c-7.2-1.2-14.1-3.2-20.6-6
		c-11.4-4.9-21.2-11.8-29.5-20.7c-8.3-8.9-14.7-19.5-19.3-31.8c-2.5-6.6-4.3-13.5-5.4-20.8c0.9-6.2,1.3-12.7,1.2-19.4
		c0-6.9-0.5-13.5-1.5-19.9c-1.1-7.4-2.8-14.5-5.2-21.2c-0.5-1.5-1.1-3-1.7-4.4l97.4-13.9C1626.3,416.4,1628.8,436.2,1628.9,457.8z"
		/>
	<linearGradient id="SVGID_5_" gradientUnits="userSpaceOnUse" x1="1009.798" y1="384.6473" x2="933.9561" y2="291.6823">
		<stop  offset="0" style="stop-color:#000000"/>
		<stop  offset="8.062150e-02" style="stop-color:#080808;stop-opacity:0.9139"/>
		<stop  offset="0.204" style="stop-color:#1D1D1D;stop-opacity:0.7821"/>
		<stop  offset="0.3546" style="stop-color:#404040;stop-opacity:0.6212"/>
		<stop  offset="0.5268" style="stop-color:#707070;stop-opacity:0.4372"/>
		<stop  offset="0.7172" style="stop-color:#AEAEAE;stop-opacity:0.2338"/>
		<stop  offset="0.9202" style="stop-color:#F9F9F9;stop-opacity:1.695949e-02"/>
		<stop  offset="0.936" style="stop-color:#FFFFFF;stop-opacity:0"/>
	</linearGradient>
	<path class="st5" d="M1018.6,270.8l0,12.7c-48.4,21.9-83.6,69.9-89.4,127.1L929,270.8L1018.6,270.8z"/>
	<linearGradient id="SVGID_6_" gradientUnits="userSpaceOnUse" x1="677.7896" y1="504.128" x2="897.0913" y2="621.1592">
		<stop  offset="0" style="stop-color:#000000"/>
		<stop  offset="0.1036" style="stop-color:#1D1D1D;stop-opacity:0.8964"/>
		<stop  offset="0.5516" style="stop-color:#959595;stop-opacity:0.4484"/>
		<stop  offset="0.8591" style="stop-color:#E1E1E1;stop-opacity:0.1409"/>
		<stop  offset="1" style="stop-color:#FFFFFF;stop-opacity:0"/>
	</linearGradient>
	<path class="st6" d="M919.1,643.4l-55.9-0.1c-25.2-0.3-47.5-4.4-66.8-12.3c-16.8-7-31.4-16-43.7-27.2c26.4-24,44.7-57.5,50-95.5
		c2.7,12.2,7.5,22.2,14.5,29.9c11.3,12.8,26.9,19.2,46.8,19.2l34.5,0L919.1,643.4z"/>
	<path class="st0" d="M1820.3,287.9h-82.7c0,3.1,0.9,6.1,2.3,8.6c0.7,1.3,1.6,2.4,2.7,3.4c3.1,3.1,7.3,5,12.1,5h65.6V322h-52.5
		c0,4.7,1.9,9,5,12.1c3.1,3.1-21.5,5-16.8,5h64.3v270.3c0,31.6-8.6,61.3-23.7,86.7c-29.2,49.5-82.7,82.9-144.3,83.9h0l0-0.1
		l78.7-99.7l2.6-290L1622,270.7c0.2,0,1.1,0,2.7,0c23.7,0.1,195.5,0,195.5,0V287.9z"/>
	<g>
		<path class="st0" d="M151.7,356.1h-45.1c-1.8,0-3.5-0.1-5.2-0.2c-0.2,0-0.4,0-0.6,0c-17-1.1-32.6-7.2-45.3-16.9H159
			c-3.7,7.4-5.3,10.5-6,11.7C153.5,350.1,154,349.9,151.7,356.1z"/>
		<path class="st0" d="M182.2,304.9c-1.4,0.1-41.6,16.2-42.2,17.1H38.4c-3.9-5.2-7.3-11-10-17.1H182.2z"/>
		<path class="st0" d="M200.9,287.9H23c-1-4.8-1.5-11.6-1.7-17.2h160v0.6C171.4,275.9,209.4,281.4,200.9,287.9z"/>
	</g>
	<g>
		<path class="st0" d="M1768.3,356.1h45.1c1.8,0,3.5-0.1,5.2-0.2c0.2,0,0.4,0,0.6,0c17-1.1,32.6-7.2,45.3-16.9h-103.6
			c3.7,7.4,5.3,10.5,6,11.7C1766.4,350.1,1766,349.9,1768.3,356.1z"/>
		<path class="st0" d="M1737.7,304.9c1.4,0.1,41.6,16.2,42.2,17.1h101.7c3.9-5.2,7.3-11,10-17.1H1737.7z"/>
		<path class="st0" d="M1738.6,270.8v0.5c10,4.6-28,10.2-19.5,16.6H1897c1.1-5.5,1.7-11.2,1.7-17.1H1738.6z"/>
	</g>
	<g>
		<g>
			<path class="st0" d="M798.1,56.9l2.9,47.1c0.1,1.4,0.1,2.8,0,4.1c-0.3,4.2-1.4,7.4-3.5,9.6c-2.4,2.6-5.6,4-9.6,4.3
				c-0.4,0-0.9,0-1.3,0c-0.4,0-0.9,0-1.3,0c-4.2-0.2-7.7-1.7-10.4-4.3c-3-2.9-4.7-7.5-5.1-13.8l-1.9-30.1h0c8.8,0,15.5-7.1,15-15.9
				l-0.1-0.9h-38.5l2.9,47.1c0.4,6.2-0.7,10.8-3.4,13.6c-2.4,2.6-5.6,4-9.6,4.3c-0.4,0-0.9,0-1.3,0c-0.4,0-0.9,0-1.3,0
				c-4.2-0.2-7.6-1.7-10.4-4.3c-3-2.9-4.7-7.5-5.1-13.8l-1.9-30.1h2.1c9.3,0,16.4-7.6,15.8-16.9v0h-41.6l1.2,19.5h0.2l1.7,27.6
				c0.4,6,1.5,11.3,3.4,15.9c2,4.7,4.8,8.6,8.4,11.7c3.5,3.2,7.6,5.7,12.4,7.3c4.8,1.6,10.2,2.5,16.1,2.5h0c0.4,0,0.8,0,1.1,0
				c5.5-0.1,10.4-0.9,14.7-2.5c4-1.4,7.4-3.4,10.3-6c0.1,0.1,0.2,0.1,0.2,0.2c3.2,2.6,6.9,4.6,11.1,6c4.5,1.4,9.5,2.2,15.1,2.3
				c0.4,0,0.7,0,1.1,0h0.2c0.7,0,1.5,0,2.2-0.1c5-0.2,9.5-1,13.4-2.4c4.6-1.6,8.4-4.1,11.5-7.3c1.9-1.9,3.5-4.1,4.7-6.6
				c0.9-1.6,1.6-3.3,2.1-5.2c1-3.5,1.6-7.5,1.6-11.9c0-1.3,0-2.7-0.1-4.1l-1.9-30.2l0,0c3.1,0,5.4-2.5,5.3-5.6l-0.7-11.3H798.1z"/>
		</g>
	</g>
	<polygon class="st0" points="1530.9,779.9 1660.8,779.9 1660.8,692 1458.8,692 	"/>
</g>
</svg>
